<svg id="OBJECTS" xmlns="http://www.w3.org/2000/svg" xmlns:xlink="http://www.w3.org/1999/xlink" viewBox="0 0 248.06 320.86"><defs><style>.cls-1{fill:none;}.cls-2{opacity:0.35;}.cls-3{fill:#242424;}.cls-4{fill:#333;}.cls-5{fill:#3d3d3d;}.cls-19,.cls-6{fill:#0b1114;}.cls-7{fill:#1f1f1f;}.cls-8{fill:#ac00ff;}.cls-9{opacity:0.2;}.cls-10{fill:#0a0a0a;}.cls-11{fill:#80f;}.cls-12{fill:#383838;}.cls-13{fill:#d5d6d6;}.cls-14{fill:#1a1a1a;}.cls-15{fill:#feffff;}.cls-16{fill:#541b00;}.cls-17{opacity:0.1;}.cls-18{clip-path:url(#clip-path);}.cls-19{opacity:0.18;}.cls-20{fill:#12224f;}.cls-21{fill:#292929;}</style><clipPath id="clip-path" transform="translate(-139.66 -87.27)"><path class="cls-1" d="M258.37,274.06l-16.51-8.9a4.38,4.38,0,0,1-1.79-6l11-20.37a13.78,13.78,0,0,1,18.67-5.6h0a13.79,13.79,0,0,1,5.6,18.67l-11,20.37A4.4,4.4,0,0,1,258.37,274.06Z"/></clipPath></defs><g class="cls-2"><path d="M358.62,183.45l5.14,2.77c1.45.78,3.14.48,3.76-.68l14.78-27.45c.62-1.15-.05-2.72-1.5-3.5l-2.37-1.27a2.79,2.79,0,0,0-3.65.5l-.14.21L364,147.69l-.14-.08h0l-23-13.76h0l-7-4.2c0-.29-.06-.59-.11-.9a14,14,0,0,0-1.83-5.11,5.46,5.46,0,0,0-2.08-2h0A5.49,5.49,0,0,0,327,121a13.67,13.67,0,0,0-5.27,1.29c-.3.13-.57.27-.83.41l-7.41-3.58h0l-23.85-11.51h0l-.42-.2-10.85-5.24.09-.23a2.79,2.79,0,0,0-1.58-3.33l-2.36-1.27c-1.46-.79-3.14-.49-3.76.67L256,125.47c-.63,1.15,0,2.72,1.5,3.5l5.14,2.77c1.54.83,3.31.44,3.84-.84l2.41-5.82,34.45,13.07h0l3.9,1.48.54.7-.95,1.42-1,1.51-2.12,3.13c-4,5.89-8.52,12.55-13.37,19.53l-2.67,3.84-2.72,3.87-8.41-4.53a3.71,3.71,0,0,0-4.42.7l-6.39-3.44,1.12-2.08,3.84-7.12c.1-.19.19-.39.27-.58h0a9.77,9.77,0,0,0-4.25-12.67l-7.38-4a10.91,10.91,0,0,0-1.41-.61h0a9.77,9.77,0,0,0-11.5,4h0c-.12.18-.23.36-.34.55L242.21,151l-8.55,15.88L230,173.62c-.13.25-.25.51-.36.76s-.19.48-.28.73h0A9.8,9.8,0,0,0,232.72,186h0a11.43,11.43,0,0,0,1.29.84l7.38,4a9.77,9.77,0,0,0,12.36-2.63h0a7.26,7.26,0,0,0,.46-.63c.15-.23.3-.47.43-.72l3.62-6.72,1.52-2.81L269,195.5l-2.88,3.78a13.4,13.4,0,0,0-10.46,7l3.5,1.89-2.71,3.31L255,213.12c-2.32,2.77-4.59,5.39-6.8,7.82l-.72.75-.23.23-.48.46-.27.25-.43.38-.3.24c-.13.12-.27.22-.4.33l-.3.23-.4.29-.3.21-.4.25-.29.19-.41.23-.28.16-.43.22-.26.13-.63.29-.26.1-.44.17-.32.11-.34.11-.35.1-.32.09-.35.09-.3.06-.37.08-.28.05-.38.06-.25,0-.41,0-.19,0-.46.05h0c-3.6.29-7-.32-10.39.21h0c-4.4.7-8.64,3.39-12.83,12.75l-.12-.06L211.5,241c-.75.48-1.48,1-2.2,1.51a43.06,43.06,0,0,0-4.07,3.42,42.09,42.09,0,0,0-6.36,7.72,3.37,3.37,0,0,0-3.52,2.37l-1.75,5.81a9.85,9.85,0,0,0-.37,2L170,307l-3-1.62a4.11,4.11,0,0,0-5.56,1.67,1.28,1.28,0,0,0-.13.63,10.2,10.2,0,0,0-3.56,3.42h0c-.11.18-.24.37-.34.57l-4,7.34-8.83,16.4-3.74,6.94c-.13.25-.26.52-.37.78a7.61,7.61,0,0,0-.28.75h0A10.1,10.1,0,0,0,145,356.05l7.62,4.1a8.93,8.93,0,0,0,1.46.63h0a9.75,9.75,0,0,0,2.09.49h0a10.1,10.1,0,0,0,7.71-2.26l-7.7,18a.93.93,0,0,0,1.68.81l4-7.53,4.41,2,1.17.53h0l20.9,9.43a23.92,23.92,0,0,1,2.73,1.47L210.46,396h0l1.09.69,4.08,2.58-4,7.53a.94.94,0,0,0,1.61,1L222.24,394a10.1,10.1,0,0,0,2.07,4h0a10,10,0,0,0,1.57,1.48h0a10.52,10.52,0,0,0,1.33.87l7.62,4.1a10.09,10.09,0,0,0,12.76-2.7h0c.16-.21.32-.42.47-.65a7.66,7.66,0,0,0,.45-.74l3.73-6.94L261.07,377l4-7.35c.11-.2.2-.4.29-.6h0a10.14,10.14,0,0,0,.91-4.52,1.25,1.25,0,0,0,.76-.62,4.1,4.1,0,0,0-1.67-5.55L263,357.11l24.89-46.21,2.89-3.46a3.36,3.36,0,0,0,.6-3.2,42,42,0,0,0,3.82-15.45c.05-.89.06-1.78.05-2.67l0-2.15-.11-.06c5.5-8.66,5.42-13.68,3.58-17.74h0c-1.4-3.09-3.8-5.63-5.54-8.78l0,0-.21-.41-.09-.17-.18-.37-.11-.23-.16-.36c0-.08-.07-.17-.11-.26s-.09-.23-.14-.34l-.11-.3-.12-.34-.1-.31c0-.12-.07-.23-.11-.34l-.09-.36-.09-.32c0-.15-.06-.31-.1-.46a2.56,2.56,0,0,0-.05-.27c0-.23-.08-.46-.11-.69a2.89,2.89,0,0,1,0-.29c0-.16,0-.31-.05-.47s0-.22,0-.33l0-.47c0-.11,0-.23,0-.34v-.48c0-.12,0-.24,0-.36s0-.33,0-.49,0-.26,0-.38,0-.35.05-.52,0-.25.05-.38,0-.38.08-.57,0-.24.05-.37.08-.43.13-.65l.06-.32c.07-.33.15-.66.23-1,.82-3.18,1.75-6.52,2.79-10,.2-.69.41-1.38.63-2.08.41-1.35.84-2.71,1.28-4.08l3.49,1.88a13.39,13.39,0,0,0,.07-12.57q.88-2.58,1.81-5.17L322.59,210l-2,3.71L317,220.45c-.14.25-.25.5-.36.75s-.2.49-.28.73h0a9.79,9.79,0,0,0,3.32,10.92h0a9.21,9.21,0,0,0,1.29.84l7.38,4a9.78,9.78,0,0,0,12.36-2.62h0c.16-.21.31-.41.46-.63s.3-.47.43-.72L345.2,227l8.55-15.88,3.84-7.12a9.79,9.79,0,0,0-4-13.25l-7.38-4a8.71,8.71,0,0,0-1.41-.61h0a9.76,9.76,0,0,0-11.5,4h0c-.12.18-.23.36-.34.55l-3.83,7.12L328,199.93l-6.39-3.44a3.7,3.7,0,0,0-1.85-4.07l-8.68-4.68c.58-1.48,1.15-3,1.73-4.4s1.16-2.91,1.73-4.35c3.16-7.89,6.23-15.34,8.95-21.91.5-1.19,1-2.36,1.45-3.49l.7-1.68.61-1.46,1.21.1,3.12,2.25h0l30.13,21.76-3.53,5.22C356.44,180.93,357.08,182.62,358.62,183.45Zm-123,179.88-4,7.48a1,1,0,0,0-.77.24l-2.71-1.46-3.62-5.28,3.05-3.29,5.34,7.32,2.1-3.89-4.7-6.41c2.37-2.56,4.93-5.35,7.64-8.3l4.92,2.65a10,10,0,0,0-3.26,3.59Zm-59.12-22.26-1.71-.93,4-7.42,4-7.35c.11-.2.2-.4.29-.6h0a10.31,10.31,0,0,0,.92-4.1l5.87,3.17c-.93,3.7-1.81,7.22-2.61,10.48l-9-.45-2.09,3.89,10.12.49c-.37,1.52-.73,3-1.06,4.32l-7.48-.14-.72-.38A.91.91,0,0,0,176.55,341.07Zm101-157.21-.6.82-1.56-2ZM306.4,200l.19-.51,1.16.62Zm-37.12-15.58,4.1,5.2-.87,1.18Zm35,21.31,5.43.46-5.85.67Z" transform="translate(-139.66 -87.27)"/></g><rect class="cls-3" x="221.74" y="354.09" width="55.04" height="28.85" rx="10.1" transform="translate(-333.05 325.96) rotate(-61.69)"/><path class="cls-4" d="M244.82,346.34,228.3,377a10.24,10.24,0,0,0-.66,1.53l25.14,13.54a9.56,9.56,0,0,0,.92-1.39L270.23,360c.1-.2.19-.4.28-.6l-25.34-13.65C245.05,346,244.93,346.14,244.82,346.34Z" transform="translate(-139.66 -87.27)"/><path class="cls-5" d="M240.86,353.68,232,370.08a3,3,0,0,0-.29.85l25.15,13.54a3.21,3.21,0,0,0,.55-.71l8.83-16.39.14-.33-25.35-13.65A3,3,0,0,0,240.86,353.68Z" transform="translate(-139.66 -87.27)"/><path class="cls-6" d="M228.73,387.32a9.61,9.61,0,0,0,.78,1L255,341.11a9.26,9.26,0,0,0-1.28-.08Z" transform="translate(-139.66 -87.27)"/><path class="cls-6" d="M231.07,389.82a9.2,9.2,0,0,0,1,.66l26.08-48.43a10.24,10.24,0,0,0-1.08-.45Z" transform="translate(-139.66 -87.27)"/><path class="cls-6" d="M244.85,396a9.29,9.29,0,0,1-1.28-.09L269,348.68a9.61,9.61,0,0,1,.78,1Z" transform="translate(-139.66 -87.27)"/><path class="cls-6" d="M241.48,395.43a11.37,11.37,0,0,1-1.09-.45l26.09-48.43a9.2,9.2,0,0,1,1,.66Z" transform="translate(-139.66 -87.27)"/><rect class="cls-3" x="139.5" y="309.8" width="55.04" height="28.85" rx="10.1" transform="translate(-337.3 230.27) rotate(-61.69)"/><path class="cls-4" d="M188,315.73l-16.53,30.68a9.56,9.56,0,0,1-.92,1.39L145.4,334.26a10.34,10.34,0,0,1,.66-1.54L162.58,302c.11-.19.23-.38.35-.57l25.34,13.65C188.18,315.32,188.09,315.53,188,315.73Z" transform="translate(-139.66 -87.27)"/><path class="cls-5" d="M184,323.07l-8.83,16.4a3.46,3.46,0,0,1-.55.71L149.5,326.64a3.23,3.23,0,0,1,.29-.86l8.83-16.39.2-.3,25.35,13.65C184.12,322.85,184.08,323,184,323.07Z" transform="translate(-139.66 -87.27)"/><path class="cls-6" d="M162.62,351.72a11.18,11.18,0,0,1-1.29-.09l25.45-47.24a9.51,9.51,0,0,1,.77,1Z" transform="translate(-139.66 -87.27)"/><path class="cls-6" d="M159.24,351.14a11.2,11.2,0,0,1-1.08-.45l26.08-48.43a8.27,8.27,0,0,1,1,.66Z" transform="translate(-139.66 -87.27)"/><path class="cls-6" d="M146.49,343a11.14,11.14,0,0,0,.78,1l25.44-47.24a11,11,0,0,0-1.28-.09Z" transform="translate(-139.66 -87.27)"/><path class="cls-6" d="M148.83,345.53a9.33,9.33,0,0,0,1,.66l26.08-48.43a11.37,11.37,0,0,0-1.09-.45Z" transform="translate(-139.66 -87.27)"/><rect x="174.48" y="346.6" width="66.85" height="5.21" transform="translate(50.78 -144.1) rotate(28.31)"/><rect class="cls-7" x="183.51" y="344.47" width="47.11" height="8.56" rx="3.29" transform="translate(50.47 -143.75) rotate(28.31)"/><polygon class="cls-3" points="193.18 29.06 136.37 1.64 124.17 24.29 172.75 42.72 180.49 52.63 193.02 53.64 235.14 84.06 247.34 61.41 193.18 29.06"/><polygon class="cls-8" points="230.59 80.73 213.29 68.1 229.42 50.7 242.54 58.54 230.59 80.73"/><path class="cls-3" d="M369,176.57l-5.14-2.77c-1.53-.82-2.18-2.52-1.4-3.66l17.56-26a2.81,2.81,0,0,1,3.66-.51l2.36,1.27c1.45.79,2.13,2.36,1.5,3.51L372.71,175.9C372.09,177.05,370.41,177.36,369,176.57Z" transform="translate(-139.66 -87.27)"/><polygon class="cls-9" points="223.51 75.56 230.59 80.73 242.54 58.54 237.19 55.34 223.51 75.56"/><path class="cls-8" d="M369,176.57l-5.14-2.77c-1.53-.82-2.18-2.52-1.4-3.66l17.56-26a2.81,2.81,0,0,1,3.66-.51l2.36,1.27c1.45.79,2.13,2.36,1.5,3.51L372.71,175.9C372.09,177.05,370.41,177.36,369,176.57Z" transform="translate(-139.66 -87.27)"/><polygon class="cls-8" points="129.45 26.26 149.52 33.75 155.17 10.71 141.4 4.07 129.45 26.26"/><path class="cls-3" d="M262.67,119.33l5.14,2.77c1.54.83,3.31.44,3.84-.84l12-28.95A2.8,2.8,0,0,0,282.07,89l-2.36-1.28c-1.45-.78-3.14-.48-3.76.68l-14.78,27.45C260.55,117,261.22,118.55,262.67,119.33Z" transform="translate(-139.66 -87.27)"/><polygon class="cls-9" points="137.67 29.33 129.45 26.26 141.4 4.07 147.02 6.78 137.67 29.33"/><path class="cls-8" d="M262.67,119.33l5.14,2.77c1.54.83,3.31.44,3.84-.84l12-28.95A2.8,2.8,0,0,0,282.07,89l-2.36-1.28c-1.45-.78-3.14-.48-3.76.68l-14.78,27.45C260.55,117,261.22,118.55,262.67,119.33Z" transform="translate(-139.66 -87.27)"/><path class="cls-10" d="M318.69,109.49a32.22,32.22,0,0,0-10.18,19l3.9,1.48,7.74,9.91,12.54,1,3.11,2.25a32.24,32.24,0,0,0,10.25-19l-13.2-7.89Z" transform="translate(-139.66 -87.27)"/><path class="cls-3" d="M300.42,276.48l0-2.16-81.88-44.1-1.81,1.16a42.23,42.23,0,0,0-14.32,15.48l-29.76,55.25,46.5,25,46.5,25,29.76-55.25A42.21,42.21,0,0,0,300.42,276.48Z" transform="translate(-139.66 -87.27)"/><path class="cls-9" d="M292.64,272.29l.15-2.06-66.68-35.91-1.64,1.25A49.84,49.84,0,0,0,211,251.51l-29.76,55.25,37.86,20.39L257,347.54l29.76-55.25A49.73,49.73,0,0,0,292.64,272.29Z" transform="translate(-139.66 -87.27)"/><path class="cls-8" d="M219.85,233.08l1.74-1.2-3.08-1.66-1.81,1.16a42.23,42.23,0,0,0-14.32,15.48l-29.76,55.25,3.5,1.88,29.76-55.25A44.91,44.91,0,0,1,219.85,233.08Z" transform="translate(-139.66 -87.27)"/><path class="cls-8" d="M300.42,276.48l0-2.16-3.08-1.66,0,2.12a45,45,0,0,1-5.39,20.28l-29.76,55.25,3.5,1.88,29.76-55.25A42.21,42.21,0,0,0,300.42,276.48Z" transform="translate(-139.66 -87.27)"/><path class="cls-11" d="M270.45,354.8,241.17,339a1.28,1.28,0,0,1-.52-1.73l1.34-2.49a1.27,1.27,0,0,1,1.73-.51l26.79,14.43a4.09,4.09,0,0,1,1.67,5.55h0A1.28,1.28,0,0,1,270.45,354.8Z" transform="translate(-139.66 -87.27)"/><path class="cls-11" d="M167.14,299.15l29.28,15.77a1.26,1.26,0,0,0,1.72-.51l1.34-2.49a1.27,1.27,0,0,0-.51-1.73l-26.8-14.43a4.09,4.09,0,0,0-5.55,1.67h0A1.26,1.26,0,0,0,167.14,299.15Z" transform="translate(-139.66 -87.27)"/><path class="cls-11" d="M211.37,267.64l-8-4.3a9.52,9.52,0,0,1-4.6-11.12l1.75-5.81a3.39,3.39,0,0,1,4.84-2l14.34,7.73a3.37,3.37,0,0,1,1.37,4.57L216,266.27A3.39,3.39,0,0,1,211.37,267.64Z" transform="translate(-139.66 -87.27)"/><path class="cls-11" d="M272.26,300.43l8,4.3a9.53,9.53,0,0,0,11.82-2.28l3.88-4.66a3.37,3.37,0,0,0-1-5.13l-14.34-7.73A3.38,3.38,0,0,0,276,286.3l-5.15,9.56A3.38,3.38,0,0,0,272.26,300.43Z" transform="translate(-139.66 -87.27)"/><path class="cls-3" d="M305.16,220.49l-44.33-23.88h0A13.4,13.4,0,0,1,279,191.17l20.75,11.18a13.39,13.39,0,0,1,5.44,18.14Z" transform="translate(-139.66 -87.27)"/><polygon class="cls-10" points="194.66 110.91 150.29 107.17 122.75 72.18 125.8 66.52 153.34 101.51 197.71 105.25 194.66 110.91"/><polygon class="cls-3" points="193.83 112.46 144.4 118.11 121.92 73.73 124.96 68.07 147.45 112.45 196.87 106.8 193.83 112.46"/><rect class="cls-12" x="263.74" y="173.05" width="73.14" height="7.15" transform="translate(-20 -208.55) rotate(28.31)"/><rect class="cls-3" x="272.09" y="170.37" width="56.59" height="12.48" rx="3.71" transform="translate(-20 -208.59) rotate(28.31)"/><rect class="cls-3" x="228.88" y="141.78" width="53.31" height="27.95" rx="9.78" transform="translate(-142.42 219.61) rotate(-61.69)"/><path class="cls-4" d="M251.24,134.27l-16,29.71a9.24,9.24,0,0,0-.63,1.49L259,178.58a10.5,10.5,0,0,0,.89-1.35l16-29.71c.1-.2.19-.39.28-.59l-24.55-13.22C251.46,133.89,251.34,134.07,251.24,134.27Z" transform="translate(-139.66 -87.27)"/><path class="cls-5" d="M247.4,141.38l-8.55,15.88a3,3,0,0,0-.28.83l24.35,13.11a3,3,0,0,0,.54-.69L272,154.63a3.05,3.05,0,0,0,.13-.32L247.6,141.09C247.53,141.19,247.46,141.28,247.4,141.38Z" transform="translate(-139.66 -87.27)"/><path class="cls-6" d="M235.65,174a9.19,9.19,0,0,0,.75,1l24.65-45.75a10.49,10.49,0,0,0-1.25-.08Z" transform="translate(-139.66 -87.27)"/><path class="cls-6" d="M237.92,176.38a10.35,10.35,0,0,0,.94.64l25.26-46.9a8,8,0,0,0-1.05-.44Z" transform="translate(-139.66 -87.27)"/><path class="cls-6" d="M251.27,182.37a10.32,10.32,0,0,1-1.24-.08l24.64-45.75a11.7,11.7,0,0,1,.75,1Z" transform="translate(-139.66 -87.27)"/><path class="cls-6" d="M248,181.81c-.35-.12-.7-.27-1.05-.43l25.26-46.91a9.12,9.12,0,0,1,.94.64Z" transform="translate(-139.66 -87.27)"/><rect class="cls-3" x="315.82" y="188.6" width="53.31" height="27.95" rx="9.78" transform="translate(-137.94 320.77) rotate(-61.69)"/><path class="cls-4" d="M338.18,181.09l-16,29.71a11.33,11.33,0,0,0-.64,1.49l24.35,13.12a10.68,10.68,0,0,0,.9-1.36l16-29.71c.1-.19.19-.39.28-.58l-24.55-13.22C338.4,180.72,338.28,180.9,338.18,181.09Z" transform="translate(-139.66 -87.27)"/><path class="cls-5" d="M334.34,188.21l-8.55,15.87a3,3,0,0,0-.28.83L349.86,218a2.8,2.8,0,0,0,.54-.69L359,201.46c.05-.11.09-.21.13-.32l-24.55-13.22C334.47,188,334.4,188.1,334.34,188.21Z" transform="translate(-139.66 -87.27)"/><path class="cls-6" d="M322.59,220.79a11.7,11.7,0,0,0,.75,1L348,176a8.61,8.61,0,0,0-1.24-.08Z" transform="translate(-139.66 -87.27)"/><path class="cls-6" d="M324.86,223.21a7.7,7.7,0,0,0,.94.63l25.26-46.9c-.35-.17-.7-.31-1.05-.44Z" transform="translate(-139.66 -87.27)"/><path class="cls-6" d="M338.21,229.2a8.76,8.76,0,0,1-1.25-.09l24.65-45.75a10.43,10.43,0,0,1,.75,1Z" transform="translate(-139.66 -87.27)"/><path class="cls-6" d="M334.94,228.64a9.69,9.69,0,0,1-1.05-.44l25.26-46.9a10.26,10.26,0,0,1,.94.63Z" transform="translate(-139.66 -87.27)"/><path class="cls-13" d="M297,234.75c10.39-40.72,40.93-107.41,42-112.9.36-1.8-.69-8.19-4-9.83-3.2-1.87-9.11.77-10.42,2.06-4,3.93-42.86,66.13-71.14,97.22-14.38,15.81-26.09-8.56-37.67,26.47-8.77,26.51-28.47,108-28.47,108a10.63,10.63,0,0,0,5.24,12.07l7.8,4.2,7.81,4.2a10.61,10.61,0,0,0,13-2.26s57.21-61.3,74.52-83.21C318.48,251.82,291.69,255.46,297,234.75Z" transform="translate(-139.66 -87.27)"/><path class="cls-8" d="M297,234.75c10.39-40.72,40.93-107.41,42-112.9.36-1.8-.69-8.19-4-9.83-3.2-1.87-9.11.77-10.42,2.06-4,3.93-42.86,66.13-71.14,97.22-14.38,15.81-26.09-8.56-37.67,26.47-8.77,26.51-28.47,108-28.47,108a10.63,10.63,0,0,0,5.24,12.07l7.8,4.2,7.81,4.2a10.61,10.61,0,0,0,13-2.26s57.21-61.3,74.52-83.21C318.48,251.82,291.69,255.46,297,234.75Z" transform="translate(-139.66 -87.27)"/><path class="cls-10" d="M219.82,363.29a10,10,0,0,1-12.27,2.64l.59.31a10.61,10.61,0,0,0,13-2.26s57.21-61.3,74.52-83.21C318.48,251.82,219.82,363.29,219.82,363.29Z" transform="translate(-139.66 -87.27)"/><path class="cls-10" d="M188.55,346.45a10,10,0,0,0,4.55,11.7l-.59-.32a10.64,10.64,0,0,1-5.24-12.07s19.7-81.49,28.47-108C227.33,202.73,188.55,346.45,188.55,346.45Z" transform="translate(-139.66 -87.27)"/><path class="cls-4" d="M196.28,326.37h29.4a6.13,6.13,0,0,1,6.13,6.13v24.12a0,0,0,0,1,0,0H190.15a0,0,0,0,1,0,0V332.5a6.13,6.13,0,0,1,6.13-6.13Z" transform="translate(47.49 -146.48) rotate(28.31)"/><path class="cls-8" d="M291.08,231.57c12.82-39.41,44.48-105.49,46-110.77.48-1.73.38-7.61-2.06-8.78-2.32-1.4-7.29,1.75-8.46,3.11-3.6,4.15-41.35,67-67.2,99.34-13.15,16.48-19.64-5.09-32.76,29.12-9.92,25.89-34.7,104.65-34.7,104.65-1.53,4.6-.38,9,2.77,10.74l5.69,3.06,5.69,3.07c3.15,1.69,7.49.21,10.49-3.6,0,0,52.13-64,68.28-86.56C306.14,245.17,284.56,251.62,291.08,231.57Z" transform="translate(-139.66 -87.27)"/><path class="cls-14" d="M240.22,354.8l-7.41-10.1a.91.91,0,0,0-1.55.09l-1.13,2.08a.93.93,0,0,0,.05.95l7.94,10.88Z" transform="translate(-139.66 -87.27)"/><path class="cls-14" d="M235.65,363.3,227,350.62a.76.76,0,0,0-1.3.07l-.93,1.73a.75.75,0,0,0,0,.79l9.13,13.32Z" transform="translate(-139.66 -87.27)"/><path class="cls-14" d="M183.45,324.23l12.51.62a.92.92,0,0,1,.79,1.35l-1.13,2.08a.91.91,0,0,1-.82.48l-13.45-.64Z" transform="translate(-139.66 -87.27)"/><path class="cls-14" d="M178.87,332.72l15.37.28a.76.76,0,0,1,.66,1.12l-.94,1.73a.75.75,0,0,1-.68.4L177.13,336Z" transform="translate(-139.66 -87.27)"/><path class="cls-10" d="M257.24,213.35c26.71-31.94,64.86-94.52,68.59-98.59,1.23-1.33,6.53-4.3,9.16-2.74-3.2-1.87-9.11.77-10.42,2.06-4,3.93-42.86,66.13-71.14,97.22-8,8.8-15.19,5.15-22,6.23C231.45,217.53,249.67,222.39,257.24,213.35Z" transform="translate(-139.66 -87.27)"/><path class="cls-10" d="M293.17,232.7c12-39.88,43.22-106.17,44.57-111.53.44-1.75,0-7.82-2.75-9.15,3.32,1.64,4.37,8,4,9.83-1.09,5.49-31.63,72.18-42,112.9-3,11.53,4,15.51,6.89,21.78C303.87,256.53,289.78,244,293.17,232.7Z" transform="translate(-139.66 -87.27)"/><path class="cls-9" d="M279.52,246.25l-13-7-13-7c-16.24-8.75-26,23-39.17,62.42-9.55,28.66-12.52,44.49-12.52,44.49a9.72,9.72,0,0,0,16.84,9.07s11.59-11.19,30.26-34.94C274.6,280.69,295.75,255,279.52,246.25Z" transform="translate(-139.66 -87.27)"/><path class="cls-3" d="M277.4,247.23l-11.75-6.33-11.75-6.33c-14.7-7.92-24.36,22.32-37.23,59.79-9.37,27.27-12.43,42.29-12.43,42.29a8.73,8.73,0,0,0,15.25,8.21S230.34,334,248,311.21C272.16,279.85,292.1,255.14,277.4,247.23Z" transform="translate(-139.66 -87.27)"/><path class="cls-15" d="M205.63,339.86s2.32-10.68,9.16-30.13c9.39-26.72,16.48-48.28,26.52-42.87l-1.18-.63c-11.51-6.2-18.08,15.63-26.91,42.66-6.43,19.67-8.35,30.56-8.35,30.56a6.91,6.91,0,0,0,3.37,8C205.73,346.13,204.64,343,205.63,339.86Z" transform="translate(-139.66 -87.27)"/><path class="cls-15" d="M258.54,276.14l-1.18-.63c10,5.41-4.06,23.19-21.2,45.73C223.69,337.66,216,345.47,216,345.47a6.29,6.29,0,0,1-7.8,2,6.91,6.91,0,0,0,8.56-1.6s8-7.6,20.93-23.79C255.43,299.84,270.05,282.34,258.54,276.14Z" transform="translate(-139.66 -87.27)"/><path class="cls-16" d="M218,349.77l8.63,18.59a1.26,1.26,0,0,0,2.26.06l2.71-5a1.25,1.25,0,0,0,0-1.13l-9.38-20.2A1.27,1.27,0,0,0,220,342l-1.86,3.47A4.79,4.79,0,0,0,218,349.77Z" transform="translate(-139.66 -87.27)"/><path class="cls-16" d="M201.88,341.1l-20.27,3a1.26,1.26,0,0,1-1.3-1.84l2.71-5a1.27,1.27,0,0,1,.92-.65l22-3.28a1.27,1.27,0,0,1,1.3,1.85l-1.87,3.46A4.79,4.79,0,0,1,201.88,341.1Z" transform="translate(-139.66 -87.27)"/><path class="cls-16" d="M208.71,336.38h3.11a1.56,1.56,0,0,1,1.56,1.56v13.76a0,0,0,0,1,0,0h-6.23a0,0,0,0,1,0,0V337.94A1.56,1.56,0,0,1,208.71,336.38Z" transform="translate(48.61 -145.84) rotate(28.31)"/><path class="cls-8" d="M221.91,390.26l-25.63-16.21a22.35,22.35,0,0,0-2.73-1.47l-27.64-12.47L181,332.16l25.46,11.62a57.86,57.86,0,0,1,6.81,3.66L237,362.32Z" transform="translate(-139.66 -87.27)"/><path class="cls-8" d="M213.24,347.44a57.86,57.86,0,0,0-6.81-3.66L181,332.16l-4.06,7.53,25.47,11.62a58.74,58.74,0,0,1,6.81,3.67l23.71,14.87,4.06-7.53Z" transform="translate(-139.66 -87.27)"/><g class="cls-17"><path class="cls-8" d="M176,344.55a30.33,30.33,0,0,1,9.27-10.44L181,332.16l-15.06,27.95,6.75,3A30.1,30.1,0,0,1,176,344.55Z" transform="translate(-139.66 -87.27)"/><path class="cls-8" d="M233,359.81a30.29,30.29,0,0,1-17.31,26.5l6.25,3.95L237,362.32Z" transform="translate(-139.66 -87.27)"/></g><path class="cls-8" d="M161.76,368.53h0a.92.92,0,0,0,1.26-.38l19.11-35.46a1,1,0,0,0-.38-1.27l-3.19-1.71a.94.94,0,0,0-1.3.45l-15.92,37.18A.93.93,0,0,0,161.76,368.53Z" transform="translate(-139.66 -87.27)"/><path class="cls-8" d="M217.16,398.37h0a.93.93,0,0,1-.38-1.27l19.1-35.46a.94.94,0,0,1,1.26-.38l3.19,1.71a.93.93,0,0,1,.33,1.34l-22.28,33.75A.93.93,0,0,1,217.16,398.37Z" transform="translate(-139.66 -87.27)"/><path class="cls-9" d="M239.22,283.5a3,3,0,0,1-1.61-2.5l-4.88-1.61a2.3,2.3,0,0,1-.39-.17,2.08,2.08,0,0,1-1-2.77l1.43-2.66a2,2,0,0,1,2.48-.87l5.38,1.77a2.86,2.86,0,0,1,3.68-.69l5.29,2.85a2.87,2.87,0,0,1,1.46,3.45l4.44,3.53a2,2,0,0,1,.63,2.54L254.72,289a1.86,1.86,0,0,1-1.24.93,2.27,2.27,0,0,1-1.61-.22h0a3.17,3.17,0,0,1-.36-.23l-4-3.2a3,3,0,0,1-3,0Z" transform="translate(-139.66 -87.27)"/><rect class="cls-6" x="239.57" y="273.38" width="11.06" height="11.06" rx="3.17" transform="translate(21.9 -170.14) rotate(28.31)"/><path class="cls-6" d="M252.81,288.65l-8.74-7.18a1.62,1.62,0,0,0-.53-.29l-10.81-3.35a1.55,1.55,0,0,1-.91-2.22l1.66-3.1a1.57,1.57,0,0,1,1.84-.75l11.39,3.53a1.42,1.42,0,0,1,.53.28l9.22,7.58a1.54,1.54,0,0,1,.38,1.94l-1.67,3.1A1.56,1.56,0,0,1,252.81,288.65Z" transform="translate(-139.66 -87.27)"/><path class="cls-9" d="M272,253.71,251.35,242.6l5.56-10.32a11.73,11.73,0,0,1,15.87-4.76h0a11.71,11.71,0,0,1,4.76,15.87Z" transform="translate(-139.66 -87.27)"/><path class="cls-10" d="M270.8,231.21h0a15.13,15.13,0,0,0-20.5,6.14l-12.05,22.37a4.83,4.83,0,0,0,2,6.55L258.35,276a4.83,4.83,0,0,0,6.55-2l12-22.36A15.13,15.13,0,0,0,270.8,231.21Z" transform="translate(-139.66 -87.27)"/><g class="cls-18"><rect class="cls-11" x="244.43" y="240.91" width="24.51" height="30.99" transform="translate(-230.45 273.55) rotate(-61.69)"/><polygon class="cls-6" points="116.11 172.43 108.36 168.26 122.55 141.92 128.81 145.3 116.11 172.43"/><polygon class="cls-6" points="123.35 176.33 115.44 172.07 131.5 146.19 137.76 149.57 123.35 176.33"/><path class="cls-8" d="M262.51,279.14,235.34,264.5a2.49,2.49,0,0,1-1-3.38h0a2.51,2.51,0,0,1,3.39-1l27.17,14.64a2.49,2.49,0,0,1,1,3.38h0A2.49,2.49,0,0,1,262.51,279.14Z" transform="translate(-139.66 -87.27)"/><path class="cls-3" d="M275.91,241.47l-3.78-1.21a1,1,0,0,0-1.28.82c-.62,4.55-4.05,12.89-5.54,16.2a5.48,5.48,0,0,0-.52-.31l-6.05-3.26-6-3.26-.55-.26c1.93-3,7-10.42,10.41-13.48a1,1,0,0,0-.07-1.56l-3.25-2.27a1,1,0,0,0-1.16,0c-5.33,4-13.71,15.65-15.95,20.72-1.59,3.6-.63,8.53,3.17,10.57l6,3.26,6,3.26c3.8,2,8.44.13,10.57-3.17,3-4.66,8.2-18.37,8.65-25.07A1,1,0,0,0,275.91,241.47Z" transform="translate(-139.66 -87.27)"/><path class="cls-19" d="M261.92,266.1h0l.36-.55.05-.09c.12-.19.24-.39.35-.6h0l.28-.55c.1-.17.2-.34.3-.53s.22-.42.32-.64a1.3,1.3,0,0,0,.08-.17c.09-.2.18-.39.26-.59l0-.07c.09-.22.17-.45.25-.68a.56.56,0,0,1,0-.12c.07-.21.13-.42.19-.64l0-.05.18-.73v0c.05-.24.1-.49.14-.73h0a12.75,12.75,0,0,0,.15-1.49h0a10.45,10.45,0,0,0-.93-5h0c-.08-.16-.16-.32-.25-.47h0a6.74,6.74,0,0,0-.91-1.26l0,0-.3-.3-.1-.09-.27-.23-.12-.09-.28-.21-.11-.08-.42-.24-.44-.22-.13-.05-.33-.12-.14-.05-.34-.1-.12,0-.42-.09h0a7.23,7.23,0,0,0-1.55-.07h0a4.8,4.8,0,0,0-.52.05h0a10.36,10.36,0,0,0-4.69,2h0a12.88,12.88,0,0,0-1.16.94h0c-.18.17-.36.34-.53.52h0l-.51.56,0,0c-.15.17-.29.35-.43.52a.39.39,0,0,1-.08.1l-.43.59,0,0c-.12.18-.24.36-.35.54s-.07.11-.1.16l-.36.63q-.15.27-.27.54a5.54,5.54,0,0,0-.3.53c-.12.21-.22.42-.32.62a1,1,0,0,1,0,.1,8.44,8.44,0,0,0-.34,7.22l0,0a5,5,0,0,0,.26.52h0l.3.49,0,.05.32.45,0,0c.11.15.24.29.36.43l.07.07.38.39,0,0,.42.37.1.08c.14.11.28.23.43.33l0,0,.47.32.12.07.51.3.53.26.12.06.53.22h0a4.56,4.56,0,0,0,.52.18l.11,0,.55.15h0l.53.11h.1l.56.07h0l.55,0h.07l.57,0h0l.58-.07h0a7.68,7.68,0,0,0,3.93-1.92h0a10.23,10.23,0,0,0,1.56-1.79Zm1.78-8.55c0-.05,0-.11-.05-.16S263.68,257.5,263.7,257.55Zm-.13-.37-.06-.16Zm-.15-.37-.07-.16Zm-.16-.35-.08-.16Zm-.19-.35A.89.89,0,0,0,263,256,.89.89,0,0,1,263.07,256.11Zm-.2-.34a1.3,1.3,0,0,0-.1-.15A1.3,1.3,0,0,1,262.87,255.77Zm-.22-.33-.11-.15Zm-.23-.31-.12-.15Zm-.25-.31-.14-.15Zm-.27-.29-.15-.15Zm-.29-.29-.15-.14Zm-7.87-2.36.16,0Zm.38-.08.17,0Zm2.36,0,.19,0Zm.39.06.2,0Zm-.6-.09h0Zm-.39,0h0Zm-.4,0h0Zm-.4,0h0Zm-.39,0h0Zm-4.8,2.31h0Zm.3-.28,0,0Zm.31-.27.07-.06Zm.33-.25.09-.07Zm.34-.24.11-.07Zm.35-.22.12-.07Zm.36-.2.12-.07Zm.36-.18.13-.07Zm.37-.16.14-.06Zm.37-.14.15,0Zm.53-.17-.15,0Zm5.7.66.38.2.37.21-.37-.21Zm-1.94-.69.2,0Zm.39.1.21.07Zm.39.12.22.08Zm.39.14.23.09Zm.39.16.25.11Zm2.48,1.55-.17-.14Zm-.31-.26-.19-.14Zm-.33-.25-.21-.14Zm-.35-.24-.24-.15Zm3.45,4.56a.83.83,0,0,0,0,.15A.83.83,0,0,1,263.77,257.78Zm.1.39,0,.15Zm.07.4,0,.14Zm.06.4a.76.76,0,0,1,0,.15A.76.76,0,0,0,264,259Zm0,.42v0Zm0,.42v0Zm0,.43a.37.37,0,0,0,0,.11A.37.37,0,0,1,264.05,260.24Zm0,.43a.31.31,0,0,0,0,.1A.31.31,0,0,1,264,260.67Zm-.06.44a.17.17,0,0,1,0,.07A.17.17,0,0,0,264,261.11Zm-.07.45h0Z" transform="translate(-139.66 -87.27)"/><path class="cls-8" d="M262.22,264.47c-2.64,4.9-7.05,5.68-10.87,3.63s-5.59-6.18-3-11.08,7.14-5.83,11-3.78S264.86,259.57,262.22,264.47Z" transform="translate(-139.66 -87.27)"/><path class="cls-20" d="M258.06,255.63c3.5,1.88,5.21,5.62,3.45,10a10.68,10.68,0,0,0,.71-1.15c2.64-4.9.95-9.17-2.87-11.23s-8.32-1.12-11,3.78a11.26,11.26,0,0,0-.57,1.23C250.51,254.37,254.57,253.75,258.06,255.63Z" transform="translate(-139.66 -87.27)"/><path class="cls-8" d="M252,266.88c-2.72-1.47-4.55-3.77-4.77-6.5a7.9,7.9,0,0,0,12.83,6.91C257.65,268.61,254.72,268.35,252,266.88Z" transform="translate(-139.66 -87.27)"/><path class="cls-21" d="M260.83,250.49c-3.82-2.06-9.26.63-11.9,5.53-.09.17-.18.34-.26.51,2.67-4.47,7-5.27,10.68-3.29s5.39,6,3.13,10.72c.09-.16.19-.32.28-.49C265.4,258.57,264.65,252.54,260.83,250.49Z" transform="translate(-139.66 -87.27)"/><path class="cls-8" d="M260.62,250.87a8.2,8.2,0,0,1,2.81,2.42,5.95,5.95,0,0,0-6.37-3.44A8.24,8.24,0,0,1,260.62,250.87Z" transform="translate(-139.66 -87.27)"/><path class="cls-6" d="M259.87,252.28a8.4,8.4,0,0,0-7.18-.59,13.12,13.12,0,0,0-3.76,4.33c-.09.17-.18.34-.26.51,2.67-4.47,7-5.27,10.68-3.29s5.39,6,3.13,10.72c.09-.16.19-.32.28-.49A13,13,0,0,0,264.3,258,8.37,8.37,0,0,0,259.87,252.28Z" transform="translate(-139.66 -87.27)"/><path class="cls-3" d="M259.28,232.91s1.27-.36,1.59-1c1.06-2.29,3.78-4.39,6.31-2.58s2.3,2.36,0,1.78c-4-1-3.12,2.49-2,2.65s2,.48,2.09,1.19-1.63.29-2.58.77c-.66.33-2-.46-2.5-.09S259.28,232.91,259.28,232.91Z" transform="translate(-139.66 -87.27)"/><path class="cls-3" d="M276,241.68a3,3,0,0,1,0-1.91c1.33-2.13,1.58-5.56-1.32-6.68s-3.23-.62-1.48,1c3.05,2.79-.37,4-1.11,3.16s-1.52-1.45-2.14-1.09.65,1.52.78,2.57c.08.73,1.47,1.39,1.45,2S276,241.68,276,241.68Z" transform="translate(-139.66 -87.27)"/><path class="cls-8" d="M272.43,237.74l-7.88-4.25a1.91,1.91,0,0,1-.78-2.58h0a1.91,1.91,0,0,1,2.58-.77l7.89,4.25A1.9,1.9,0,0,1,275,237h0A1.91,1.91,0,0,1,272.43,237.74Z" transform="translate(-139.66 -87.27)"/></g></svg>