<svg id="OBJECTS" xmlns="http://www.w3.org/2000/svg" xmlns:xlink="http://www.w3.org/1999/xlink" viewBox="0 0 256.57 317.68"><defs><style>.cls-1{fill:none;}.cls-2{opacity:0.35;}.cls-3{fill:#242424;}.cls-4{fill:#333;}.cls-5{fill:#3d3d3d;}.cls-21,.cls-6{fill:#0b1114;}.cls-7{fill:#1f1f1f;}.cls-8{fill:#f04d00;}.cls-9{opacity:0.2;}.cls-10{fill:#f06522;}.cls-11{fill:#0a0a0a;}.cls-12{fill:#f03000;}.cls-13{fill:#993100;}.cls-14{fill:#383838;}.cls-15{fill:#d5d6d6;}.cls-16{fill:#1a1a1a;}.cls-17{fill:#feffff;}.cls-18{fill:#541b00;}.cls-19{opacity:0.1;}.cls-20{clip-path:url(#clip-path);}.cls-21{opacity:0.18;}.cls-22{fill:#f05d18;}.cls-23{fill:#12224f;}.cls-24{fill:#292929;}</style><clipPath id="clip-path" transform="translate(-133.82 -89.51)"><path class="cls-1" d="M255.62,275.26l-16.11-9.61a4.41,4.41,0,0,1-1.53-6l11.86-19.87A13.77,13.77,0,0,1,268.73,235h0a13.78,13.78,0,0,1,4.78,18.9l-11.86,19.87A4.4,4.4,0,0,1,255.62,275.26Z"/></clipPath></defs><g class="cls-2"><path d="M359.74,189.12l5,3c1.42.85,3.11.62,3.78-.51l16-26.77c.68-1.13.07-2.73-1.35-3.57l-2.3-1.38a2.82,2.82,0,0,0-3.68.35l-.14.2-10.33-6.79-.13-.09h0l-22.41-14.76h0l-6.85-4.5c0-.29,0-.59-.07-.91a13.57,13.57,0,0,0-1.61-5.18,5.44,5.44,0,0,0-2-2.07h0a5.48,5.48,0,0,0-2.76-.77,13.92,13.92,0,0,0-5.33,1c-.3.13-.58.25-.84.38l-7.24-3.9h0l-23.33-12.54h0l-.41-.22-10.61-5.71.1-.22a2.79,2.79,0,0,0-1.44-3.4l-2.3-1.38c-1.42-.84-3.11-.62-3.78.51l-16,26.78c-.67,1.12-.07,2.72,1.35,3.57l5,3c1.5.89,3.29.58,3.87-.68l2.67-5.71,33.84,14.57h0l3.83,1.65.52.72q-.51.68-1,1.38c-.36.48-.72,1-1.08,1.46l-2.26,3c-4.24,5.71-9.06,12.17-14.21,18.93q-1.39,1.84-2.84,3.72l-2.89,3.75-8.2-4.9a3.71,3.71,0,0,0-4.44.51L267.65,168l1.21-2L273,159c.11-.19.2-.38.3-.57h0a9.77,9.77,0,0,0-3.69-12.84l-7.2-4.3a11.08,11.08,0,0,0-1.39-.67h0a9.75,9.75,0,0,0-11.66,3.53h0a6.18,6.18,0,0,0-.36.53l-4.14,6.95-9.24,15.48-3.91,6.56a10.33,10.33,0,0,0-.7,1.46h0a9.77,9.77,0,0,0,2.84,11.05h0a10.47,10.47,0,0,0,1.25.9l7.2,4.29a9.77,9.77,0,0,0,12.46-2.07h0a5.87,5.87,0,0,0,.48-.61,5.7,5.7,0,0,0,.47-.7l3.91-6.55,1.64-2.75,8.4,18.55c-1,1.23-2,2.44-3.05,3.65a13.36,13.36,0,0,0-10.75,6.51l3.41,2c-1,1.08-1.91,2.15-2.85,3.19L255,214.24c-2.43,2.66-4.82,5.18-7.13,7.51q-.37.38-.75.72l-.24.21-.5.44c-.09.09-.19.16-.28.24s-.3.25-.45.36l-.3.23-.42.31-.31.22-.41.27-.31.19-.41.24-.3.18-.42.21-.29.15-.43.2-.27.12-.65.25a2,2,0,0,1-.26.09,3.81,3.81,0,0,1-.44.15l-.33.1-.35.1-.34.08-.33.08-.35.07-.31,0a2.38,2.38,0,0,1-.37.06l-.28,0-.39,0-.25,0-.41,0h-.19l-.46,0h0c-3.6.13-7-.63-10.39-.25h0c-4.43.51-8.78,3-13.38,12.18l-.11-.06-1.86,1.08c-.77.45-1.52.92-2.26,1.42a40.35,40.35,0,0,0-4.22,3.24,41.75,41.75,0,0,0-6.69,7.42,3.36,3.36,0,0,0-3.62,2.23l-2,5.72a10.3,10.3,0,0,0-.45,2l-25.12,42.12-2.93-1.74a4.09,4.09,0,0,0-5.62,1.42,1.26,1.26,0,0,0-.16.63,9.83,9.83,0,0,0-3.7,3.25h0a6.61,6.61,0,0,0-.37.55l-4.28,7.17-9.54,16-4,6.77a8.14,8.14,0,0,0-.41.77c-.12.24-.22.49-.32.73h0a10.1,10.1,0,0,0,4.23,12.34l7.43,4.43a11.09,11.09,0,0,0,1.43.7h0a10.31,10.31,0,0,0,2.07.58h0a10.13,10.13,0,0,0,7.8-1.93L149,373.62a.92.92,0,0,0,.37,1.2.93.93,0,0,0,1.28-.32l4.37-7.34,4.32,2.18,1.15.58h0l20.46,10.34a20,20,0,0,1,2.67,1.59l18.81,13.09h0l1.06.73,4,2.77-4.38,7.33a.94.94,0,0,0,1.56,1l9.64-13.29a10.14,10.14,0,0,0,1.9,4.07h0a10.45,10.45,0,0,0,1.5,1.55h0a11.16,11.16,0,0,0,1.29.93l7.43,4.43a10.09,10.09,0,0,0,12.87-2.15h0c.17-.2.34-.41.5-.63s.33-.47.48-.72l4-6.77,9.54-16,4.27-7.17a6.63,6.63,0,0,0,.31-.59h0a10.08,10.08,0,0,0,1.11-4.47,1.31,1.31,0,0,0,.79-.58,4.11,4.11,0,0,0-1.43-5.63l-2.29-1.36,26.89-45.08,3-3.33a3.35,3.35,0,0,0,.74-3.16,42,42,0,0,0,4.49-15.27c.08-.89.14-1.78.17-2.67l.07-2.15-.11-.07c5.88-8.4,6-13.42,4.36-17.56h0c-1.26-3.15-3.56-5.79-5.15-9l0,0-.2-.42-.08-.18c-.06-.12-.11-.25-.16-.38a1.6,1.6,0,0,1-.1-.23c0-.12-.1-.24-.14-.36s-.07-.18-.1-.27a3.62,3.62,0,0,1-.13-.35l-.09-.3c0-.11-.08-.23-.11-.34l-.09-.32-.09-.35c0-.11,0-.23-.08-.35s-.05-.22-.07-.33-.05-.31-.08-.47,0-.18,0-.27-.06-.46-.08-.69l0-.29,0-.48c0-.11,0-.22,0-.33v-.46c0-.12,0-.23,0-.35s0-.31,0-.47l0-.37c0-.16,0-.32,0-.49s0-.25,0-.37,0-.35.07-.52l.06-.38c0-.18.07-.37.11-.56s0-.24.07-.37l.15-.64c0-.11.05-.21.08-.32.08-.33.18-.66.28-1,.95-3.14,2-6.44,3.21-9.84.24-.69.48-1.37.73-2.06.47-1.33.95-2.67,1.45-4l3.41,2a13.39,13.39,0,0,0,.62-12.56c.67-1.68,1.34-3.38,2-5.08l20.82-1.46-2.15,3.62-3.91,6.55c-.15.25-.28.49-.4.74s-.21.48-.31.72h0a9.77,9.77,0,0,0,2.85,11.05h0a9.46,9.46,0,0,0,1.25.9l7.2,4.3a9.79,9.79,0,0,0,12.46-2.08h0c.16-.2.33-.4.48-.61s.32-.46.47-.7l3.91-6.56,9.23-15.49,4.15-6.94a9.8,9.8,0,0,0-3.39-13.41l-7.2-4.29a9.91,9.91,0,0,0-1.39-.68h0a9.78,9.78,0,0,0-11.67,3.53h0l-.36.54-4.14,6.94-1.21,2-6.23-3.72a3.71,3.71,0,0,0-1.67-4.15l-8.47-5c.64-1.45,1.29-2.89,1.93-4.32s1.28-2.86,1.92-4.27c3.5-7.74,6.89-15.05,9.9-21.5l1.6-3.42.77-1.65.67-1.43,1.21.16,3,2.38h0l29.16,23.06-3.76,5C357.67,186.51,358.24,188.23,359.74,189.12ZM229,363.45l-4.36,7.3a.87.87,0,0,0-.77.21l-2.65-1.58L217.87,364l3.19-3.16,5,7.55,2.26-3.8-4.41-6.6c2.48-2.46,5.16-5.13,8-8l4.8,2.86a10,10,0,0,0-3.41,3.44ZM171,338.62l-1.68-1,4.32-7.24,4.28-7.17c.11-.19.21-.39.31-.59h0a10.17,10.17,0,0,0,1.1-4L185,322c-1.09,3.67-2.12,7.14-3.07,10.36l-9-.84-2.26,3.79,10.09.93c-.44,1.5-.86,2.93-1.25,4.28l-7.47-.47-.7-.42A.93.93,0,0,0,171,338.62ZM278.77,186l-.64.79-1.47-2.05Zm28.07,17.37c.07-.17.15-.33.22-.5l1.12.67Zm-36.4-17.18,3.87,5.37-.92,1.14Zm34,22.82,5.41.69-5.87.42C304.15,209.74,304.3,209.37,304.46,209Z" transform="translate(-133.82 -89.51)"/></g><rect class="cls-3" x="214.86" y="354.8" width="55.04" height="28.85" rx="10.1" transform="translate(-332.7 298.76) rotate(-59.19)"/><path class="cls-4" d="M238.92,346.88,221.07,376.8a10.4,10.4,0,0,0-.72,1.51l24.52,14.63a9.6,9.6,0,0,0,1-1.36l17.85-29.92c.12-.2.21-.4.31-.59l-24.72-14.75C239.17,346.5,239,346.68,238.92,346.88Z" transform="translate(-133.82 -89.51)"/><path class="cls-5" d="M234.65,354l-9.54,16a3,3,0,0,0-.33.84l24.53,14.63a3,3,0,0,0,.58-.69l9.54-16a3.13,3.13,0,0,0,.15-.32l-24.72-14.75A2.64,2.64,0,0,0,234.65,354Z" transform="translate(-133.82 -89.51)"/><path class="cls-6" d="M221.05,387.12a11.06,11.06,0,0,0,.73,1.06l27.49-46.08A8,8,0,0,0,248,342Z" transform="translate(-133.82 -89.51)"/><path class="cls-6" d="M223.28,389.72a10.91,10.91,0,0,0,.94.7l28.18-47.24a9.26,9.26,0,0,0-1.06-.5Z" transform="translate(-133.82 -89.51)"/><path class="cls-6" d="M236.78,396.5a11.13,11.13,0,0,1-1.28-.14L263,350.28a11.06,11.06,0,0,1,.73,1.06Z" transform="translate(-133.82 -89.51)"/><path class="cls-6" d="M233.43,395.78a11.33,11.33,0,0,1-1.06-.5L260.55,348a10.91,10.91,0,0,1,.94.7Z" transform="translate(-133.82 -89.51)"/><rect class="cls-3" x="134.64" y="306.95" width="55.04" height="28.85" rx="10.1" transform="translate(-330.74 206.52) rotate(-59.19)"/><path class="cls-4" d="M183.48,313.81l-17.85,29.92a10.47,10.47,0,0,1-1,1.36l-24.53-14.63a10.47,10.47,0,0,1,.73-1.51L158.7,299a5.42,5.42,0,0,1,.37-.56l24.72,14.75Z" transform="translate(-133.82 -89.51)"/><path class="cls-5" d="M179.2,321l-9.53,16a3,3,0,0,1-.59.68L144.56,323a3,3,0,0,1,.32-.84l9.54-16a2.92,2.92,0,0,1,.21-.28l24.73,14.74A3.18,3.18,0,0,1,179.2,321Z" transform="translate(-133.82 -89.51)"/><path class="cls-6" d="M156.56,348.65a9.28,9.28,0,0,1-1.28-.14l27.49-46.08a11.06,11.06,0,0,1,.73,1.06Z" transform="translate(-133.82 -89.51)"/><path class="cls-6" d="M153.21,347.93a9.26,9.26,0,0,1-1.06-.5l28.18-47.24a10.91,10.91,0,0,1,.94.7Z" transform="translate(-133.82 -89.51)"/><path class="cls-6" d="M140.83,339.27a11.06,11.06,0,0,0,.73,1.06l27.49-46.08a11.13,11.13,0,0,0-1.28-.14Z" transform="translate(-133.82 -89.51)"/><path class="cls-6" d="M143.06,341.87a10.91,10.91,0,0,0,.94.7l28.18-47.24a11.33,11.33,0,0,0-1.06-.5Z" transform="translate(-133.82 -89.51)"/><rect x="168.49" y="345.52" width="66.85" height="5.21" transform="translate(73.01 -143.79) rotate(30.81)"/><rect class="cls-7" x="177.54" y="343.36" width="47.11" height="8.56" rx="3.29" transform="translate(72.64 -143.44) rotate(30.81)"/><polygon class="cls-3" points="203.11 31.43 147.55 1.55 134.37 23.65 182.09 44.19 189.39 54.43 201.87 55.98 242.62 88.21 255.8 66.12 203.11 31.43"/><polygon class="cls-8" points="238.22 84.69 221.49 71.31 238.36 54.64 251.13 63.04 238.22 84.69"/><path class="cls-3" d="M370.36,182.7l-5-3c-1.5-.89-2.07-2.61-1.25-3.72l18.68-25.16a2.8,2.8,0,0,1,3.68-.35l2.3,1.37c1.42.85,2,2.45,1.35,3.57l-16,26.78C373.47,183.32,371.78,183.55,370.36,182.7Z" transform="translate(-133.82 -89.51)"/><polygon class="cls-9" points="231.37 79.21 238.22 84.69 251.13 63.04 245.92 59.61 231.37 79.21"/><path class="cls-10" d="M370.36,182.7l-5-3c-1.5-.89-2.07-2.61-1.25-3.72l18.68-25.16a2.8,2.8,0,0,1,3.68-.35l2.3,1.37c1.42.85,2,2.45,1.35,3.57l-16,26.78C373.47,183.32,371.78,183.55,370.36,182.7Z" transform="translate(-133.82 -89.51)"/><polygon class="cls-8" points="139.56 25.85 159.28 34.21 165.93 11.44 152.47 4.2 139.56 25.85"/><path class="cls-3" d="M266.69,120.87l5,3c1.5.89,3.29.58,3.87-.68l13.26-28.39a2.79,2.79,0,0,0-1.44-3.4L285.09,90c-1.42-.85-3.11-.62-3.78.5l-16,26.78C264.67,118.43,265.27,120,266.69,120.87Z" transform="translate(-133.82 -89.51)"/><polygon class="cls-9" points="147.64 29.27 139.56 25.85 152.47 4.2 157.97 7.15 147.64 29.27"/><path class="cls-10" d="M266.69,120.87l5,3c1.5.89,3.29.58,3.87-.68l13.26-28.39a2.79,2.79,0,0,0-1.44-3.4L285.09,90c-1.42-.85-3.11-.62-3.78.5l-16,26.78C264.67,118.43,265.27,120,266.69,120.87Z" transform="translate(-133.82 -89.51)"/><path class="cls-11" d="M323.08,113.49a32.11,32.11,0,0,0-11,18.55l3.83,1.65,7.3,10.24,12.48,1.56,3,2.38a32.31,32.31,0,0,0,11.07-18.48l-12.84-8.46Z" transform="translate(-133.82 -89.51)"/><path class="cls-3" d="M297.52,279.51l.07-2.15-79.88-47.64-1.86,1.08a42.23,42.23,0,0,0-15,14.83l-32.14,53.9,45.35,27.05,45.36,27.06,32.15-53.9A42.1,42.1,0,0,0,297.52,279.51Z" transform="translate(-133.82 -89.51)"/><path class="cls-9" d="M289.94,275l.23-2.05-65-38.8-1.69,1.19a49.75,49.75,0,0,0-14.14,15.33l-32.15,53.9,36.93,22,36.94,22,32.15-53.89A50.17,50.17,0,0,0,289.94,275Z" transform="translate(-133.82 -89.51)"/><path class="cls-12" d="M218.93,232.64l1.79-1.13-3-1.79-1.86,1.08a42.23,42.23,0,0,0-15,14.83l-32.14,53.9,3.41,2,32.15-53.9A44.79,44.79,0,0,1,218.93,232.64Z" transform="translate(-133.82 -89.51)"/><path class="cls-12" d="M297.52,279.51l.07-2.15-3-1.79-.13,2.11a45,45,0,0,1-6.27,20L256,351.6l3.41,2,32.15-53.9A42.1,42.1,0,0,0,297.52,279.51Z" transform="translate(-133.82 -89.51)"/><path class="cls-13" d="M264.16,356.45l-28.57-17a1.27,1.27,0,0,1-.44-1.74l1.45-2.43a1.28,1.28,0,0,1,1.75-.44l26.14,15.59a4.1,4.1,0,0,1,1.42,5.62h0A1.28,1.28,0,0,1,264.16,356.45Z" transform="translate(-133.82 -89.51)"/><path class="cls-13" d="M163.37,296.34l28.57,17a1.26,1.26,0,0,0,1.74-.44l1.45-2.42a1.28,1.28,0,0,0-.44-1.75l-26.14-15.59a4.1,4.1,0,0,0-5.62,1.42h0A1.28,1.28,0,0,0,163.37,296.34Z" transform="translate(-133.82 -89.51)"/><path class="cls-13" d="M209,266.79l-7.79-4.64a9.52,9.52,0,0,1-4.1-11.32l2-5.72a3.37,3.37,0,0,1,4.91-1.79l14,8.35a3.36,3.36,0,0,1,1.17,4.63l-5.55,9.32A3.38,3.38,0,0,1,209,266.79Z" transform="translate(-133.82 -89.51)"/><path class="cls-13" d="M268.34,302.21l7.79,4.65A9.52,9.52,0,0,0,288,305.1l4.09-4.48a3.38,3.38,0,0,0-.77-5.18l-14-8.34a3.37,3.37,0,0,0-4.63,1.17l-5.56,9.32A3.37,3.37,0,0,0,268.34,302.21Z" transform="translate(-133.82 -89.51)"/><path class="cls-3" d="M304.71,223.79,261.47,198h0a13.39,13.39,0,0,1,18.36-4.64l20.24,12.08a13.39,13.39,0,0,1,4.64,18.36Z" transform="translate(-133.82 -89.51)"/><polygon class="cls-11" points="201 113.27 156.84 107.59 130.85 71.43 134.14 65.91 160.13 102.07 204.29 107.75 201 113.27"/><polygon class="cls-3" points="200.1 114.78 150.47 118.26 129.95 72.94 133.25 67.42 153.76 112.74 203.39 109.26 200.1 114.78"/><rect class="cls-14" x="265.21" y="176.18" width="73.14" height="7.15" transform="translate(0.86 -218.72) rotate(30.81)"/><rect class="cls-3" x="273.56" y="173.5" width="56.59" height="12.48" rx="3.71" transform="translate(0.86 -218.76) rotate(30.81)"/><rect class="cls-3" x="231.31" y="142.97" width="53.31" height="27.95" rx="9.78" transform="translate(-142.78 208.59) rotate(-59.19)"/><path class="cls-4" d="M254.61,135.29l-17.29,29a10.24,10.24,0,0,0-.7,1.46l23.75,14.17a9.52,9.52,0,0,0,.95-1.31l17.29-29c.11-.18.2-.38.3-.57L255,134.75C254.85,134.93,254.72,135.1,254.61,135.29Z" transform="translate(-133.82 -89.51)"/><path class="cls-5" d="M250.47,142.23l-9.24,15.49a3,3,0,0,0-.32.81l23.76,14.17a3,3,0,0,0,.56-.67l9.24-15.49a2.23,2.23,0,0,0,.15-.31l-24-14.28A2.83,2.83,0,0,0,250.47,142.23Z" transform="translate(-133.82 -89.51)"/><path class="cls-6" d="M237.3,174.26a9,9,0,0,0,.71,1l26.62-44.63a10.46,10.46,0,0,0-1.24-.14Z" transform="translate(-133.82 -89.51)"/><path class="cls-6" d="M239.46,176.78a10.25,10.25,0,0,0,.91.68l27.29-45.75a10.74,10.74,0,0,0-1-.49Z" transform="translate(-133.82 -89.51)"/><path class="cls-6" d="M252.54,183.35a10.23,10.23,0,0,1-1.24-.14l26.62-44.62a9.18,9.18,0,0,1,.7,1Z" transform="translate(-133.82 -89.51)"/><path class="cls-6" d="M249.29,182.65c-.34-.14-.69-.3-1-.48l27.29-45.76a10.41,10.41,0,0,1,.92.68Z" transform="translate(-133.82 -89.51)"/><rect class="cls-3" x="316.12" y="193.55" width="53.31" height="27.95" rx="9.78" transform="translate(-144.86 306.09) rotate(-59.19)"/><path class="cls-4" d="M339.41,185.87l-17.28,29a9.71,9.71,0,0,0-.71,1.45l23.76,14.17a10.43,10.43,0,0,0,.95-1.31l17.29-29c.11-.19.2-.38.3-.58l-24-14.28C339.65,185.51,339.53,185.68,339.41,185.87Z" transform="translate(-133.82 -89.51)"/><path class="cls-5" d="M335.27,192.81,326,208.3a3,3,0,0,0-.32.81l23.75,14.17a2.81,2.81,0,0,0,.57-.67l9.23-15.48a1.87,1.87,0,0,0,.15-.32l-23.94-14.28A2.92,2.92,0,0,0,335.27,192.81Z" transform="translate(-133.82 -89.51)"/><path class="cls-6" d="M322.11,224.85a9.82,9.82,0,0,0,.71,1l26.62-44.63a8.85,8.85,0,0,0-1.24-.13Z" transform="translate(-133.82 -89.51)"/><path class="cls-6" d="M324.27,227.37a8.9,8.9,0,0,0,.91.67l27.29-45.75a10.64,10.64,0,0,0-1-.48Z" transform="translate(-133.82 -89.51)"/><path class="cls-6" d="M337.34,233.93a8.85,8.85,0,0,1-1.24-.13l26.62-44.63a9.82,9.82,0,0,1,.71,1Z" transform="translate(-133.82 -89.51)"/><path class="cls-6" d="M334.1,233.23a10.64,10.64,0,0,1-1-.48L360.36,187a8.9,8.9,0,0,1,.91.67Z" transform="translate(-133.82 -89.51)"/><path class="cls-15" d="M295.91,237.68c12.17-40.23,45.59-105.51,46.92-110.95.44-1.79-.33-8.22-3.58-10-3.11-2-9.13.38-10.49,1.61-4.16,3.76-45.72,64.19-75.33,94-15.06,15.17-25.69-9.69-38.8,24.8-9.92,26.1-33.16,106.65-33.16,106.65a10.63,10.63,0,0,0,4.7,12.29l7.62,4.54,7.61,4.54a10.63,10.63,0,0,0,13-1.7s59.83-58.73,78.08-79.86C316.64,255.67,289.72,258.14,295.91,237.68Z" transform="translate(-133.82 -89.51)"/><path class="cls-8" d="M295.91,237.68c12.17-40.23,45.59-105.51,46.92-110.95.44-1.79-.33-8.22-3.58-10-3.11-2-9.13.38-10.49,1.61-4.16,3.76-45.72,64.19-75.33,94-15.06,15.17-25.69-9.69-38.8,24.8-9.92,26.1-33.16,106.65-33.16,106.65a10.63,10.63,0,0,0,4.7,12.29l7.62,4.54,7.61,4.54a10.63,10.63,0,0,0,13-1.7s59.83-58.73,78.08-79.86C316.64,255.67,289.72,258.14,295.91,237.68Z" transform="translate(-133.82 -89.51)"/><path class="cls-11" d="M213.2,362.72a10,10,0,0,1-12.38,2.1l.58.34a10.63,10.63,0,0,0,13-1.7s59.83-58.73,78.09-79.86C316.64,255.67,213.2,362.72,213.2,362.72Z" transform="translate(-133.82 -89.51)"/><path class="cls-11" d="M182.7,344.53a10,10,0,0,0,4,11.88l-.57-.34a10.64,10.64,0,0,1-4.71-12.29s23.25-80.55,33.17-106.65C227.73,202.64,182.7,344.53,182.7,344.53Z" transform="translate(-133.82 -89.51)"/><path class="cls-4" d="M190.62,325.43H220a6.13,6.13,0,0,1,6.13,6.13v24.12a0,0,0,0,1,0,0H184.49a0,0,0,0,1,0,0V331.56A6.13,6.13,0,0,1,190.62,325.43Z" transform="translate(69.61 -146.61) rotate(30.81)"/><path class="cls-10" d="M290.16,234.25c14.53-38.82,49-103.45,50.77-108.66.56-1.71.71-7.59-1.68-8.87-2.25-1.49-7.35,1.44-8.59,2.75-3.77,4-44.23,65.07-71.48,96.3-13.86,15.89-19.4-5.94-34,27.66-11.05,25.43-39.25,103-39.25,103-1.72,4.53-.77,9,2.3,10.85l5.56,3.31,5.55,3.31c3.07,1.83,7.47.54,10.64-3.13,0,0,54.87-61.69,72-83.5C304.6,248.49,282.77,254,290.16,234.25Z" transform="translate(-133.82 -89.51)"/><path class="cls-16" d="M234,355.13,227,344.72a.92.92,0,0,0-1.56,0l-1.22,2a.93.93,0,0,0,0,1l7.46,11.21Z" transform="translate(-133.82 -89.51)"/><path class="cls-16" d="M229,363.42l-8.12-13.05a.76.76,0,0,0-1.3,0l-1,1.69a.77.77,0,0,0,0,.8l8.54,13.71Z" transform="translate(-133.82 -89.51)"/><path class="cls-16" d="M178.57,322.1,191,323.27a.91.91,0,0,1,.73,1.38l-1.21,2a.92.92,0,0,1-.84.44l-13.41-1.23Z" transform="translate(-133.82 -89.51)"/><path class="cls-16" d="M173.63,330.38l15.34,1a.75.75,0,0,1,.61,1.14l-1,1.69a.75.75,0,0,1-.7.37l-16.12-1Z" transform="translate(-133.82 -89.51)"/><path class="cls-11" d="M257.14,214.56c28.09-30.74,68.94-91.59,72.85-95.5,1.28-1.27,6.7-4,9.26-2.34-3.11-2-9.13.38-10.49,1.61-4.16,3.76-45.72,64.19-75.33,94-8.39,8.45-15.4,4.48-22.23,5.26C231.2,217.6,249.19,223.26,257.14,214.56Z" transform="translate(-133.82 -89.51)"/><path class="cls-11" d="M292.19,235.46C305.89,196.14,340,131.28,341.6,126c.52-1.73.34-7.81-2.35-9.27,3.25,1.79,4,8.22,3.58,10-1.33,5.44-34.75,70.72-46.92,111-3.45,11.39,3.37,15.67,5.93,22.06C301.84,259.74,288.32,246.59,292.19,235.46Z" transform="translate(-133.82 -89.51)"/><path class="cls-9" d="M278,248.41l-12.67-7.56-12.67-7.56c-15.84-9.44-27,21.9-41.86,60.65-10.8,28.22-14.46,43.91-14.46,43.91a9.72,9.72,0,0,0,16.43,9.8S224.8,337,244.49,314.06C271.54,282.59,293.8,257.85,278,248.41Z" transform="translate(-133.82 -89.51)"/><path class="cls-3" d="M275.8,249.28l-11.46-6.83-11.46-6.84c-14.34-8.55-25.32,21.24-39.81,58.1-10.55,26.84-14.26,41.71-14.26,41.71a8.72,8.72,0,0,0,14.87,8.87S225,334,243.59,311.92C269.14,281.65,290.14,257.83,275.8,249.28Z" transform="translate(-133.82 -89.51)"/><path class="cls-17" d="M200.05,338.69s2.78-10.57,10.46-29.7c10.56-26.28,18.58-47.51,28.37-41.67l-1.14-.68c-11.23-6.7-18.75,14.83-28.75,41.44-7.28,19.37-9.68,30.17-9.68,30.17a6.93,6.93,0,0,0,3,8.17A6.29,6.29,0,0,1,200.05,338.69Z" transform="translate(-133.82 -89.51)"/><path class="cls-17" d="M255.7,277.35l-1.15-.68c9.79,5.84-5.07,23-23.18,44.76-13.18,15.85-21.16,23.32-21.16,23.32a6.29,6.29,0,0,1-7.88,1.67,6.91,6.91,0,0,0,8.62-1.23s8.36-7.24,21.94-22.85C251.56,300.89,266.92,284,255.7,277.35Z" transform="translate(-133.82 -89.51)"/><path class="cls-18" d="M212,349.13l7.82,18.95a1.26,1.26,0,0,0,2.25.16l2.92-4.9a1.25,1.25,0,0,0,.09-1.13l-8.5-20.58a1.26,1.26,0,0,0-2.25-.17l-2,3.38A4.78,4.78,0,0,0,212,349.13Z" transform="translate(-133.82 -89.51)"/><path class="cls-18" d="M196.25,339.76l-20.38,2.13a1.26,1.26,0,0,1-1.22-1.9l2.92-4.91a1.31,1.31,0,0,1,1-.61l22.15-2.31a1.26,1.26,0,0,1,1.21,1.91l-2,3.37A4.82,4.82,0,0,1,196.25,339.76Z" transform="translate(-133.82 -89.51)"/><path class="cls-18" d="M202.95,335.41h3.11a1.56,1.56,0,0,1,1.56,1.56v13.76a0,0,0,0,1,0,0h-6.23a0,0,0,0,1,0,0V337A1.56,1.56,0,0,1,202.95,335.41Z" transform="translate(70.78 -145.83) rotate(30.81)"/><path class="cls-8" d="M214.11,389.76l-24.89-17.32a22.38,22.38,0,0,0-2.67-1.59l-27.06-13.67,16.26-27.26,24.93,12.72a58.45,58.45,0,0,1,6.64,4l23.05,15.89Z" transform="translate(-133.82 -89.51)"/><path class="cls-10" d="M207.32,346.6a58.45,58.45,0,0,0-6.64-4l-24.93-12.72-4.39,7.34L196.3,350a57,57,0,0,1,6.64,4L226,369.84l4.38-7.35Z" transform="translate(-133.82 -89.51)"/><g class="cls-19"><path d="M170.22,342.08a30.29,30.29,0,0,1,9.72-10l-4.19-2.14-16.26,27.26,6.6,3.33A30.12,30.12,0,0,1,170.22,342.08Z" transform="translate(-133.82 -89.51)"/><path d="M226.49,359.82A30.31,30.31,0,0,1,208,385.53l6.08,4.23,16.26-27.27Z" transform="translate(-133.82 -89.51)"/></g><path class="cls-13" d="M155,365.42h0a.93.93,0,0,0,1.28-.33l20.63-34.59a.93.93,0,0,0-.32-1.28l-3.11-1.85a.93.93,0,0,0-1.32.39L154.6,364.21A.93.93,0,0,0,155,365.42Z" transform="translate(-133.82 -89.51)"/><path class="cls-13" d="M209,397.65h0a.93.93,0,0,1-.33-1.28l20.64-34.6a.93.93,0,0,1,1.28-.32l3.1,1.85a.94.94,0,0,1,.28,1.35L210.24,397.4A.93.93,0,0,1,209,397.65Z" transform="translate(-133.82 -89.51)"/><path class="cls-9" d="M236.07,283.85a3,3,0,0,1-1.49-2.57l-4.81-1.82a2.64,2.64,0,0,1-.38-.18,2.08,2.08,0,0,1-.86-2.81l1.55-2.6a2,2,0,0,1,2.51-.76l5.3,2a2.86,2.86,0,0,1,3.71-.52l5.16,3.08a2.85,2.85,0,0,1,1.3,3.51l4.29,3.71a2.05,2.05,0,0,1,.52,2.57l-1.55,2.6a1.89,1.89,0,0,1-1.28.87,2.3,2.3,0,0,1-1.61-.29h0a2,2,0,0,1-.34-.25L244.21,287a3,3,0,0,1-3-.1Z" transform="translate(-133.82 -89.51)"/><rect class="cls-6" x="236.62" y="273.99" width="11.06" height="11.06" rx="3.17" transform="translate(43.55 -174.09) rotate(30.81)"/><path class="cls-6" d="M249.43,289.59,241,282a1.51,1.51,0,0,0-.52-.3l-10.65-3.82a1.56,1.56,0,0,1-.82-2.27l1.8-3a1.57,1.57,0,0,1,1.87-.67l11.23,4a1.51,1.51,0,0,1,.52.3l8.87,8a1.56,1.56,0,0,1,.3,2l-1.8,3A1.55,1.55,0,0,1,249.43,289.59Z" transform="translate(-133.82 -89.51)"/><path class="cls-9" d="M270.11,255.52l-20.12-12,6-10.06a11.7,11.7,0,0,1,16.06-4.06h0a11.7,11.7,0,0,1,4.06,16.06Z" transform="translate(-133.82 -89.51)"/><path class="cls-11" d="M269.91,233h0a15.13,15.13,0,0,0-20.75,5.25l-13,21.82a4.85,4.85,0,0,0,1.68,6.63l17.69,10.55a4.85,4.85,0,0,0,6.63-1.68l13-21.82A15.14,15.14,0,0,0,269.91,233Z" transform="translate(-133.82 -89.51)"/><g class="cls-20"><rect class="cls-13" x="242.45" y="242.06" width="24.51" height="30.99" transform="translate(-230.78 254.87) rotate(-59.19)"/><polygon class="cls-6" points="119.84 171.3 112.28 166.79 127.6 141.1 133.71 144.74 119.84 171.3"/><polygon class="cls-6" points="126.9 175.51 119.18 170.91 136.36 145.76 142.47 149.4 126.9 175.51"/><path class="cls-8" d="M259.53,280.51,233,264.71a2.51,2.51,0,0,1-.86-3.43h0a2.5,2.5,0,0,1,3.42-.87l26.51,15.81a2.51,2.51,0,0,1,.87,3.43h0A2.5,2.5,0,0,1,259.53,280.51Z" transform="translate(-133.82 -89.51)"/><path class="cls-3" d="M274.57,243.46l-3.72-1.36a1,1,0,0,0-1.32.76c-.81,4.52-4.61,12.7-6.24,15.94a5.54,5.54,0,0,0-.51-.33l-5.9-3.52-5.9-3.52-.53-.29c2.06-3,7.4-10.11,11-13a1,1,0,0,0,0-1.56l-3.14-2.41a1,1,0,0,0-1.16,0c-5.5,3.77-14.38,15-16.84,20-1.75,3.53-1,8.49,2.7,10.7l5.9,3.52,5.9,3.52c3.7,2.2,8.42.5,10.69-2.71,3.2-4.52,9-18,9.74-24.66A1,1,0,0,0,274.57,243.46Z" transform="translate(-133.82 -89.51)"/><path class="cls-21" d="M259.51,267.46h0c.13-.17.26-.35.38-.53l.06-.09c.13-.19.26-.38.38-.58h0l.3-.52c.11-.17.22-.34.32-.52s.24-.42.35-.63l.09-.17c.1-.19.19-.38.28-.58l0-.06c.1-.22.19-.45.28-.67l0-.12c.08-.21.15-.42.22-.63l0-.05q.12-.36.21-.72v0c.06-.24.11-.48.16-.72v0a12.39,12.39,0,0,0,.21-1.47h0a10.35,10.35,0,0,0-.71-5.05h0c-.07-.16-.15-.31-.23-.47v0a7,7,0,0,0-.85-1.29l0,0c-.09-.11-.19-.22-.29-.32l-.09-.09-.26-.24-.11-.1a2.92,2.92,0,0,0-.28-.21l-.11-.09-.41-.27-.42-.23-.13-.06-.32-.14-.15-.05-.33-.11-.12,0-.42-.1h0a6.59,6.59,0,0,0-1.54-.14h0l-.52,0h0a10.32,10.32,0,0,0-4.78,1.76h0a11.26,11.26,0,0,0-1.19.9h0l-.56.5h0l-.54.53,0,0c-.15.16-.3.32-.45.5l-.08.09c-.16.18-.31.37-.46.57l0,.05c-.13.17-.26.35-.38.53l-.1.15c-.14.2-.27.4-.39.61s-.2.35-.3.53-.22.34-.32.51-.24.41-.34.61a.93.93,0,0,0-.05.1,8.47,8.47,0,0,0-.65,7.2v0c.07.18.15.35.24.53h0c.09.17.18.34.28.5l0,.06c.1.15.2.31.31.46v0c.11.15.23.3.35.44l.06.08.36.4,0,0a5,5,0,0,0,.41.39l.09.09.42.35,0,0,.47.34.11.07.5.32.51.29.13.06.52.25h0l.51.2.12,0,.54.17h0l.53.13.09,0,.56.09h0a4.89,4.89,0,0,0,.55,0h.06a5.61,5.61,0,0,0,.58,0h0l.58,0h0a7.64,7.64,0,0,0,4-1.75h0a9.65,9.65,0,0,0,1.64-1.72Zm2.15-8.46a.94.94,0,0,0,0-.16A.94.94,0,0,1,261.66,259Zm-.11-.38a1,1,0,0,0-.05-.16A1,1,0,0,1,261.55,258.62Zm-.13-.37-.06-.16Zm-.15-.36c0-.06,0-.11-.07-.16S261.25,257.83,261.27,257.89Zm-.17-.36-.08-.16Zm-.18-.34a.86.86,0,0,0-.1-.16A.86.86,0,0,1,260.92,257.19Zm-.21-.34c0-.05-.07-.1-.1-.16S260.68,256.8,260.71,256.85Zm-.22-.33-.11-.15Zm-.24-.31-.12-.16Zm-.25-.31-.14-.15Zm-.28-.3-.14-.15ZM252,252.9l.17,0Zm.39-.06.17,0Zm2.35.06.2,0Zm.4.08.19.05Zm-.6-.11-.19,0Zm-.39-.05-.19,0Zm-.4,0h0Zm-.4,0h0Zm-.39,0h0ZM248,254.88Zm.3-.26,0,0Zm.33-.25.07-.06Zm.34-.24.09-.07Zm.35-.23.11-.06Zm.36-.2.11-.07Zm.36-.19.13-.06Zm.37-.16.14-.06Zm.37-.14.15-.05Zm.38-.13.16,0Zm.55-.14-.16,0Zm5.66.91.37.21.36.23-.36-.23Zm-1.91-.78.2.07Zm.38.12.21.08Zm.39.14.21.09Zm.38.15.23.11Zm.38.18.25.13Zm2.42,1.66-.17-.15Zm-.31-.28-.18-.14Zm-.32-.26-.19-.15Zm-.33-.25-.23-.16Zm3.24,4.7s0,.1,0,.15S261.73,259.28,261.72,259.23Zm.08.39,0,.15Zm.06.41a.59.59,0,0,1,0,.14A.59.59,0,0,0,261.86,260Zm0,.4a.76.76,0,0,1,0,.15A.76.76,0,0,0,261.9,260.43Zm0,.42v0Zm0,.42s0,.09,0,.13S261.92,261.31,261.92,261.27Zm0,.43s0,.08,0,.11S261.89,261.74,261.89,261.7Zm-.05.43s0,.07,0,.1S261.84,262.16,261.84,262.13Zm-.07.44a.13.13,0,0,1,0,.06A.13.13,0,0,0,261.77,262.57Zm-.09.45Z" transform="translate(-133.82 -89.51)"/><path class="cls-22" d="M259.89,265.84c-2.85,4.78-7.3,5.38-11,3.15s-5.31-6.41-2.46-11.19,7.38-5.52,11.11-3.29S262.74,261.07,259.89,265.84Z" transform="translate(-133.82 -89.51)"/><path class="cls-23" d="M256.12,256.84c3.4,2,4.95,5.83,3,10.13.26-.35.51-.72.76-1.13,2.85-4.77,1.34-9.11-2.38-11.33s-8.26-1.49-11.11,3.29q-.36.61-.63,1.2C248.62,255.25,252.71,254.8,256.12,256.84Z" transform="translate(-133.82 -89.51)"/><path class="cls-12" d="M249.57,267.81c-2.65-1.58-4.39-4-4.48-6.71a7.9,7.9,0,0,0,12.51,7.47C255.14,269.79,252.23,269.39,249.57,267.81Z" transform="translate(-133.82 -89.51)"/><path class="cls-24" d="M259.11,251.82c-3.73-2.22-9.28.23-12.13,5-.1.16-.19.33-.28.49,2.86-4.35,7.21-5,10.81-2.81s5.12,6.26,2.65,10.84a5.66,5.66,0,0,0,.31-.48C263.32,260.09,262.83,254,259.11,251.82Z" transform="translate(-133.82 -89.51)"/><path class="cls-12" d="M258.89,252.19a8.24,8.24,0,0,1,2.7,2.54,6,6,0,0,0-6.22-3.71A8.25,8.25,0,0,1,258.89,252.19Z" transform="translate(-133.82 -89.51)"/><path class="cls-6" d="M258.07,253.57a8.44,8.44,0,0,0-7.15-.91,13,13,0,0,0-3.94,4.17c-.1.16-.19.33-.28.49,2.86-4.35,7.21-5,10.81-2.81s5.12,6.26,2.65,10.84a5.66,5.66,0,0,0,.31-.48,13,13,0,0,0,1.78-5.45A8.4,8.4,0,0,0,258.07,253.57Z" transform="translate(-133.82 -89.51)"/><path class="cls-3" d="M258.33,234.19s1.29-.3,1.64-1c1.15-2.24,4-4.22,6.41-2.3s2.19,2.46-.07,1.77c-4-1.19-3.22,2.36-2.15,2.57s2,.56,2,1.28-1.64.22-2.61.66c-.67.3-1.95-.55-2.49-.2S258.33,234.19,258.33,234.19Z" transform="translate(-133.82 -89.51)"/><path class="cls-3" d="M274.63,243.68a2.9,2.9,0,0,1,.09-1.9c1.42-2.08,1.83-5.49-1-6.74s-3.21-.76-1.53.91c2.93,2.92-.54,4-1.24,3.1s-1.46-1.51-2.09-1.18.58,1.55.66,2.61c.05.73,1.41,1.45,1.36,2.1S274.63,243.68,274.63,243.68Z" transform="translate(-133.82 -89.51)"/><path class="cls-22" d="M271.26,239.59l-7.7-4.59a1.9,1.9,0,0,1-.65-2.61h0a1.89,1.89,0,0,1,2.6-.66l7.7,4.59a1.91,1.91,0,0,1,.66,2.61h0A1.91,1.91,0,0,1,271.26,239.59Z" transform="translate(-133.82 -89.51)"/></g></svg>